<mxfile host="65bd71144e">
    <diagram id="GeaYJ1hf1JFrF3KHSJoy" name="Page-1">
        <mxGraphModel dx="736" dy="1421" grid="1" gridSize="10" guides="1" tooltips="1" connect="1" arrows="1" fold="1" page="1" pageScale="1" pageWidth="827" pageHeight="1169" math="0" shadow="0">
            <root>
                <mxCell id="0"/>
                <mxCell id="1" parent="0"/>
                <mxCell id="2" value="&lt;font style=&quot;font-size: 34px;&quot;&gt;Management Cluster&lt;/font&gt;" style="rounded=0;whiteSpace=wrap;html=1;" parent="1" vertex="1">
                    <mxGeometry x="10" y="175" width="380" height="190" as="geometry"/>
                </mxCell>
                <mxCell id="3" value="" style="rounded=0;whiteSpace=wrap;html=1;" parent="1" vertex="1">
                    <mxGeometry x="462" y="170" width="340" height="170" as="geometry"/>
                </mxCell>
                <mxCell id="5" value="" style="rounded=0;whiteSpace=wrap;html=1;" parent="1" vertex="1">
                    <mxGeometry x="472" y="180" width="340" height="170" as="geometry"/>
                </mxCell>
                <mxCell id="6" value="&lt;font style=&quot;font-size: 34px;&quot;&gt;Worker Clusters&lt;/font&gt;" style="rounded=0;whiteSpace=wrap;html=1;" parent="1" vertex="1">
                    <mxGeometry x="482" y="190" width="340" height="170" as="geometry"/>
                </mxCell>
                <mxCell id="9" value="" style="shape=image;verticalLabelPosition=bottom;labelBackgroundColor=default;verticalAlign=top;aspect=fixed;imageAspect=0;image=data:image/png,iVBORw0KGgoAAAANSUhEUgAAA3AAAAGYCAMAAAA0vPAjAAABsFBMVEVHcEwAAAC41fXb8fvg9Pzhl4gAAAAAAABeNi4AAAAAAADU7fkAAAAAAAAAAAC+2fYAAAAAAAAAAAAAAAAAAAAAAAD4/P7/Y0L+cT4AAAAAAAAAAAAAAAAAAAAAAAD/cj4AAAD/cz7t+f3F3ve20/XR7fgAAADM5PgAAAD8jm7h9Pz79PP+cT/+bT3/cz4AAAC20/T9bz39fk7+d0S30vTV29y00fP/cz+31PX+cT7a8fv/e0v/dD/+cD7+6+X9cVb9bz610vT/aD/918v6h1r+s5u21PX+cT/ZzMn/cz//cUD/cz7Q5ez+cT/+cT/zknjroIn/oIz8fGP+cj/lrp221PX/ZkK20/S21PW20/T/cT/gvLP+49z+u6q20/X+yr610vS20/XT7fm21PW21PX+kWUiHBm21PW40/Lo5uQ3ODj1+/3+aUxSVFP/ZkhzdHTEwsPbZTeXmJivr69NJxf81clzNx+bSSi7Vi/zo4fx1c/MXTI1FQ1SX27+cz4AAADi9fzN7Pb///+10vMBAQH+YUL+azz+/v79/fwJCwsGCAj+Zkj/pnb/Xj/M7/r/bziQBBsbAAAAe3RSTlMA9/77/QcS/gMJ/Pwcpr/8tNjil/GI+/z+eCdb68xp+Ez9+/nZ9y/6QPv4/GX87zbyEf3+Iv0Sv/ks9HTlUvz8Hlv5+/ry5oP5jq3Y/J42+Pn6+0P6y/NCvGzL+vf5fPg2TueLrOn8myr6+e/8+OT5/Pz3+vjb+/n83oGEpy6cAABQfElEQVR42uydS2vyeBvGhySFQhbugrtSTRADHYInQjYvDhJcFOpCUSmIp0Gh30HMFNRF6fOV35xNq0n+iTloe/06HZ7DzKbm4rrP+esvAAAAAAAAAADgAu5arcZ6PR3O2u32xGCs/2I4na4bjVYLPx4AEqM1bS+Wo8GA51UdSZVs9F+qKs8PBqPlajyE6gC4zNMa6+FsMlILBYp6D4EqFKTBQre8RusOPzoAomntrjGdTZYDVTKkFqo2R3QUJav8cjKbtu7u8UMEgCyCXM/GkyVPUaRCO5Edv5q0hw04HQAh3N+tx6sRL8nUezy52aIznG4xQ3QJQAANI4yUKH/vKkiFQtlFkgoBNqiLbrQar6E5AM7mbdMVr0o+FZH5fK7QJuLxi7H+RJnPy4Wz/9u7YXRDSA6Ab2JrzFZ8gToxtHJFYxVF3H6D0b++oyhspVw+rWdSBXU1Qz4HgFskaQwn/Hep6Vqbm9KKiKJUznQR+PEUmgPAkNtwslS9AtGlVmFpcRsbkWYrlfIXvzQKl+M1ftjgt4eS6/aK/xZEKiKzvRxRYb9q7l0eTaaYRgG/melq5DG3Qpm9yNlOMj2aZcsezVHSYDlDYAl+ayw5XaryUQ1lgWGYbcIwDC14fU5WR1NIDvzCWLI1Hkjvsqs2VtymBcMoXs1Jg3YLc1/gl5nbeEC5ZftyJT21WU2ErVLxaE4etdeQHPg9cvN0AahyhWa26aPnc8d0jpJGcDnwa+S2GDihZKFSobdZwbBHm6PUVRsVS/DzuW+seGd8i9LNjdlmiFFBOZZPlkOYHPjhrBf80d3oTNVmF1DYYzLHLxr4RMDP5a41cfoAVEHIXm2nklORyoEfS2M8cAuTKdclw5I5t34ij2ZI5cDPrJUsj3JjtvnicTl1gU44+HnR5HTB2494OY/c7QS64pZPRhOYHPhh9jZ2OgHUVcjtq+SkFUwO/CSGI9Ud4boSuZlNgrKTyfFjmBz4Idw3xk7jLbfSpB+sY3LyEiYHfkY0ORu50eSVyc2MK63MUqZUmBz4ATQmdrFEjya3V8ixRSAjkwM3H04Ol5I7V7K9ThyTe5cHGK8Etx1OOks4V1UsOc3kypj1Aj9Bbwu7OPme62AJQbmy4q7tQHHgRrkbOtWSgkJy9EfcMjlmcgV3uhKJHLhJe2u7vbdwIZU47nDg3vLM5JywUlo0MM8Mbo7Gwn5FAMngpK62w15XHBcWeTKiokPTjPlFG79REvJFxqmdSLiNDm6O9coJJwmaAaUDtz/suf1+/yb66IxhaENorDCfC3NBs5nrCCzN6n/FiJdes3TDSnmAW3rgtnCb3WWSyUnusDflxu250rnb5SwrsKwmCKbQPjUPn9bv9L8x/hNlLl6mODuspPgJPkJwQ+WSmT2qTJK+6dhy02V3ePtmbIrACoJGiqAJc/oCp3PnTiQsEIDb0dvYKZcQjk4e9o7DHbij2hRdPoaGoqJLNHZe50nk0B8At0HLmVUukM5yOXIzvkXrXDItRFeah7muuXhO51wZonChGdyG3iZu+kb6kB9zuP1/860uNi0JBCXW5p3idORQOgE3QGMhRdWbLjjX4Q5zVkhGb0YpRaGV+B05atDGxwmu3d9i6M1bpRSTUpub0EXP59weOA/FgRvxt2i7AY7DlUQtcWJIjoHiwG3lbxFXTTmz7c2VFC0VIlctmYozWTlGHgeuV28rexmHYDmg9PbmNrkVVuR0RFZLC0ER47UHVDTkwPXmb84pBYJh5f3hsDclZ7wyUdNYRUlPbrbLMbEacvA4cJXctxb2eIkW8mQzJaNKovOfHkQqrKBlgxDtnY+ux43x2YKrzN9UwlNBjt6MQomSldwiB5bHqHKGdR1wfXqz57nkEL259rY3Ric5LVOEKOUThrUVx8PjwLVxN1PJ6pOlw8FWm4GoZUwkxTm1Sn6IDxhcVwI3k0j0xniiSYM3LXuECMdonahygFc3gqtiyhMdCzKKk7a9mQElreUB+YylaCuOGk2hOHA9rEfWg1kWQ0e43Pxtv+dELR/IiyduVIltHXA9NOx7CsHXub6Fk/s0G93hxRPiuUo7qlyhHQeupWAysRK4Ah2cvjmlScvfDvnpzYwrmWhzlTJKleBKCib2PTyKDUnfPBzyiyddkyMcr6YLzsFKfNTgGvQ25O17CoHpm9t6M6PJfYnV8oa0QyA6pUoUTsA1JHBWwSRwwMRK344pHMfkrzfD5MhqJ04DfLTGpw1yT+DsCcqghsDXcJLjSrR2FZCGlc4trwU2B0DetKXQBW9Tb07vba/LLba9PTe7r/1+v6d/91+7zefLJUfUknOaA9iOA3mzthM4JdzfDpc0Awyp9V46nVqtvtkY/9RrtU7npd/tXqg7okTOPrpA8VN84iDXgHJpBZRs0PCkN32LFU0K3V61U6vrOituHIoPu6d/nh4eLN01L1CcGKFUOULdBOSpN6sDF1Qw8eZvhxj2pltbr/Zn853i0+4Lf/dih5gsTV44KUwQVIL8GA7CJrpKntnJPafEUFvn8VRuuuC+K263q3d68TRHVDqx0zgJ3TiQGw0roAyYMPlSn4x6k+u523+pn1Ob7XEnkts9VfuvzZRKJ1YaJ6M3AHILKK2b5gFvEPDWJyM3A3Rzq28COKe43VOtGiOhI/E4O42T0BsAuVYoA1a8vf4WVW9GLLkJ5uGc4nTN6aFlCh5nL4BT/AyfPMjF4KyjeP4BpdffIs5yPfdq9U0oj+cVt6vXes3kPc4eY6awqQNyoW3qTaaJ/O0tit6a/dqGhOLjecEZmosqOYKFHacbh1OVIAdaVoVyTpa/CVFqJR1vwy1Ycr6K2z1ELJ8QeJzdG1Bx4gRkH1BaM5T+rzj11iejtN+6PTJ7C1Xc7uX1OVmPc0a8lmjGgayxlnL8d+C4vXudi4twK+j5NbRWQq64iKlc+L6OM3CCZhzIvGIiBx7p4o7H8CLEk5/NXq0YSW++hRO7F/6aaFTJsFYzboAsDmTLjA+sUJY8u28R6pPdan0TlccAwemS6z8nmsfZzTjcWwCZ0lgGLnm790v0b3K9Pb/WNjEIVlzxJUpYGXqzkrbqJlgbAJkGlNYZE78ZSm9DgLzf3ezXN7F4CFTcrtqNYHJhS+B23UReIagEmRscHVCgPES89frZfImpt+A0TidSIhfmcUzBvsWMpwBkxf3YqpgQJHA0eTfgcbOJrbhdsOL6yZUq7QkvnFsA2WH1vAtioN4OUW4rf3ZfNhcQElTuaq/JtePsCS90v0F2JUrT4ITggNL495bY314eNxcpbpeg4kSieRNYHMiqZGIZHBM2YULegGte5G8h7W+rPRBBcWFvSrUtDoVKkA1mBicrvgFl5AWBbvXPhYILDSp3/3tNLI2zWgMFvG0AZFIxaY2C7uJxxwMmDKm/Vc/UQYyzXLV6nTDSfAy1uF2tm1T/287iZOx+gywwe3B+Q5THE8vEBZNm79Tfap1q9eOj+lHtEPYKisUwwe06zaTSONqaqFzgWQAZlCjNQyY+Pe/S8f3dpAHlc+9EU/XOh0u1llBMudtVyRvgCkkWx6NsAjIyONmnP3ysUHKEehPOzJd49KZDqLincMX1PhNSnJXFyRM8DSB1gzPXBHzW4Eqety0SPtmn85OPX/X28VFPyOKeiq9JDZxYFjfAsQWQNtOBefk18AjlYX8gPalgbHd/z9+q3wRXJauchDvcrkNeOAmuVFoWp2JpAKTM3cQ/g2OOLTjiBO7lT0hASW5xRQLFRVgdCHydqzXDjBFmkDbrAeU7ZFI6HN/YQfhUn0ng6tUTwdUSmaiMuB4XXKm0xk1wMg+ky33bMDhKDHnLKaHBfXZPpVR/ONHbR4fM4R52SQaVwc0464IXRphByhHl0n9N4LgFR7oj8Pxy5p5C7VRw/24Siyl3LwlZXMV+DTGeCZAiDfO4ueJvcGbZhDCg/Dy7cVqPLzgSiyv2k2kNWPeE1DbeXwVSZGKkLmU/vdldb45wZrnZOXcwqBY3pCRzuF2NvP0dbnEUYkqQIi3jdJDMhgxRirFHTEyH+zdm0SR8ScdufydjcVbZRMVAJUiPmeR7quvYgytpsVtwZ/veH+SnvMgsrptIFmfdWqDGiClBajVKc8rk/C3KGAbn088+iSn/JV1OLf6dsMUFzptYZZMRYkqQWkQ58I0oS+4QJWnPu+sXKJ404urFTaIxZa37mYTFiVZMifEukBbmCxjPT5m4PTjilkDPt4Fdj5fBkYaUuyfy1oASOlBJ4ew5SAmzCUdpgVPLpD1vremvo8f/s3dtvU1jW1jOFG/btY2vbeJbXVpSFxRScVPVh1ORU1U8VCogyBQxcETnjKg0fZ2H84JPaRoqVYf5y2fbaRsSfFnb9nYYDUsiVCA5a7vr29/a67Ynqil3CPq+m/1hjae40dzzVz8OcT+Ezgkurlu+OZ+Zg4MWdX15ljFVYXncELdz/yPBeKFlGMUN4QVeWTXMsU/Z2PjhU/4QOoB7vZvmUY6rKMEElx15XL6/Ewvp7HMY3giavzMpbuVHV9zfWFiWFdsW/qTl4oxuhFvL9CjhbXA5VLX88QEW4uFdS0DEvaykonL+u70tjuN51uoGdix+F5sFz3Mz0qPt2y3TbHl+m+XLLSh+kBQJfp4dWLNZFMezXbulS5KiKLKMPyTd9AKxel2ODrAL1dhKr6IkmKtwApiLt0w+qnL5HhBw65VQ3Ki863trQ+W7tqlLsuuqmuZg0TRVdWUFW0WXr1kRz8R6qJpjGIzhaKortdpc0Qcp0XoMhgkRFoYx8LJcRap7UaLf0iNNDCYcC2Ic/IYl07YqxdyTjbRplFdJ78/n0KT3o0L35FTHcA/gnag/5d3ssfvk++E1VvQlDZu3IKCRLVz9jQQhMlLJFtkaWCHiI1+KcCagwVfCMI5u8YRLCvTRg0IUTgjC/zJalC/WQHXRy7VlB0N+So8rdSJd1FZ17/fxr400j3LcJrAFDZksf6SDuGHVPmVW2OSyDfU7md7FW7bu4o032R5GRhGGhqvbFl1S4EXflI3BYAJr1+KYLNjGxQA/KMwXQzZ9kSrkOLwmN1cV/H4ZV/erIbqjg7TpeNcE9xl4t/DtvZ2PMwbcvUqqTeJJC43vodiEt3xTRSFEkOC2AoujhrbAk8NBuggD3QKZOD4pKUIIWxOmctnu0sJcrAoTQgW5dreCSMrPu2mtp7cu4XYOJbj0KpPaADeEp+K28tpQZ9/3zWMmcEK4IE1pWVRM0/IklRlkCwNBHDuiawJhVMkTqYQjiVURsBvBln2Vca/3SrZHCbXholcv5td29aGAAxdUfjnMqadsbLybbZyS9XVVIDIIfP5hlFabrxxuLdlAg1wxzLxvFm1JQyGhCIKh2GLl7FZElTDEx+VykLvxIXKfDlOHv57DPcqMsq7SgIOGKYc7lbTF3Y7vEfr3LOOUnC9rTAGLGBiuWa11iviUM4AIcoNswrZlLSywJLyPaLLHVuo7YFWEsIgqgibbZXa0x/Elw3OZSTjo7YuPfps94O7D53dt5fZ9z86n5NuSUcQ0L50wu7KsLWYCl0EDmAhZgRM+UAyh6JJCZCh+ZczNBSXebig4Ugkn4igyrY0kwI2rTKBO2psHswccyVDYvHs9GgczakPlu5IRFreI6HzvVwM51neFAVy0ID36IzGlloT3EamaMCxv6UwpRVBomIWjU68bKa1w1x4ltBEOH+H+pBUzIQAcfO55Ru57lBiY1e2MlueWtE0UOmYFmWO+a5LADVOcnWKHoqeGpQVpXvmAJSfaroDKaiLIfjEXd3RHVSLgyD3K/Y+zZ7jhfiWXEF9eh7rx4WHtgRPsejHljTNkXLss4rA3SYa3AUoOm/DYhatgSaFgSGW3Ea4tOagKXTQikrtx9P71k/dHD4/epY7rur6/A1rW9eUprSwcCcORFDBnpOK2RoA73Tx49/5hnYV9nNhyw0pE0MoFTzhL1waEIkhJ+z7ruUJY0aJcrxziPLkiVZAhwQ+Vj9+t7u7urq6+Wo3x1kgqczq/cimhHiW9LBwRw8H7vjMp7ubpJeI2Vl8dvKvPs7TKHOenSU4pk5TrAmOTE6IkAI7VncqWFIaOVAJxfJWqCBoU/A8P4qj3aaMx2scTWnPmbpGWdZ2c0IuZEOThhksvv1RRT7lyei2N081XP9fkTvouU51tIsH1i7IzZ2sCqgRwlsxUiLcQMUq7+G5WqSqhocMQ96FxOiGHCa7V759Ib/TOa82pieEIJsJmMdzWxBvaPKglJcfaRlipIKdV7GzPmkYBuCUAjg9UVPGakBrwBXezqlUJFUgU52gKb6fzGWUmC9CkwMketSAl0Rmu+Qye+p6fy7m46lpqucFKNJmwYhGcQgc5Sy+GN0Fnp7cQNaxcBLVIPIinoAoSlCAfcb9OAS5xXtc56ZXeJ3v/ocdwTbhLOSQAXFZiYPIlNWq4wapseijFOk1ijuPaEjMoJMLUqYb1KOANi0oeOuE8h4YmgpxLtzcOpvB2cyv9Um94UuBk7zeKgIPjjeSuuAyfcu7mJODo58DbkkHFOBmdFHGWUhBvA2fyzMh7WkhHNJMjxRslVRg3L1gZT6H8WlZ+ymjNuXUbar2Pdv5ygMtqipsE3Okq7bBJW2EoGSdDyHGiIhTE20Ca9F/pkMooKO+RxoAQLVXUHK/y4eo04JJiJpcM9wl8hPvy6MFfD3AZPuXaJMPRBpxFDW9RMI0EcaIsoIJ40yYKTSInDlFDnOaR8Rs1TTDiLDLArd1JTXvDW+Eww/1JMUpJALh1EsClM9zh5EvaoDtwQZRCikISqxSLnt+ihjh2IkjhIIprQho8csLbGk1VwkzEcdOA20wq7Fq4ZLjz+YKAazab8Uf0WX7uwj1agEvPxN2pE3CsTtMeQuSAgwyiXhhvgtyecOJUqmsKBRVa6cH7Gt3Xi2SLgOGSxitc33p666QI4DpLnU6v1xueDc/OhviHznCpWSXD4Ufjpy6enZ0t9vrRzxQA999GfYBjWwxd4wxVH6qJU9SfHEx0w3Hdqmqo0u1c7sIiJ12ZtiaMJMIZLhFw56MrqsC9p2PANZsYChgL0Z+RRD/1Fnu9ZmHQfX0lY2fYj7B29fj4q/qLGHadAoDLqDWZClPSBBxHL7gw7tcRgb5XWJTf3InYgaXQxhvmOAW0KFZG1F9v1gilacAlZQWupyvMEQJuCYMtgsDZN4L/vdcpirgx3vqjL0h4er/XJwdcxiFupS7Acb5K3SLCUIIc47pqUX4z9O4Eck2G/pKQAEkOcGYNbzfU0hqTvmG4zZUMwIF74WLANTv9aSxcTMGi0ywVpOzhL0iA20j+t9jvdwgBd5gKuDtrdQHOUuqwCAcQ1ePkggkBQZ2a9GEbdaxJYLr5i6IbuxmHKttQhlu5k3axN/Yrb8Nt92lvMRULX2Gu1yxaaNLp9XO/APPcfkUMN18T4ETigAm6FMKoXm4hM28OiAkOIcHQ9OluTIvQyKPVCIxAvKhQy0UcaS0nGguZKjILPMOtZA3sAgNu7832N9Z/cfUxwXMFWG65B4PbiOeeVXOIqwlwvEfyi8XWrbrx5HslGnruMCQnnrxmHZ8gYIIYJxq17spKwhA7ViJYUzxPHK9IN/V4VWSLyksxihJDqIpyKdEwd5IhLILHwRhuLaP7dAHsTz47nkTaxVmqc4kdS2KXstfvgeAWP3/9KYFPmQ64zVoAZ8Gj58iR9ZYdtEWWxyJaXd8zJRVsUE4rO4xuwR1KxpVMz/a73baYMAGcb8GL1DTFtH28oiuoim28KMUh8JQzF8W3HLgLIMWqXC6IZ63AbukEsVYngJ3h1jKyAsAg5d7T/QsIFC4KHuX6IG91LNvgSULz6YD7qRbA8eCMtyOb9jfTojjWb0HnKwqZNUgcbwKH4WHYewGb2bqKoBuImTRwkrNsUwYeApGb5VRygQsHftJUdb7t6S5s+0CCwkIYbvMwo3QZCLg320R4wEJ0klvqkT5+G35vVXpHXC2As4EtkYbkt5N/n7wYtGCJXZTpfwUuyKFkpKCdPRGMBUYoBT1IHcPFWj7QLWWyeJvVYQRlpKvCsW1bZoBsC2K4w2SGI7j39OXxNI0dv1h//vZfv0Tyx9vn6y+Ov/EsCdzKZi+BK7dfrK8/j2T966eP/x96Gep8zmxKuoDjWBgZGErm2Du+bUJYDhndTNuERP+VIDe9YIO8OCNn7hXHAu3cCTIIDkJOyJCyFsXhLc0GRV6Q3IYw3Fa6S/kJUti1tz95eDveXv/n3btxIeb5wuf4NLhw95fn28dTKYJOQbzhL3j+xz/unp9//hRJ/PS369sXUywIDJ2kly/P1QA4HtIChww5t6+YE0GzUFQ2vZw+v6QLGZB2SxFATYiRAV3bvA0ZOIHS09+sCtrMAJfb8bYGUIVJGlrGAQD3+yXgFgCAe7Q/Yecv9t/+n7pz+U0jy8J4yrGoomLcNs/YPEI6MsEuOcyGUZQFSLEssYjkAaWjlmLkkReWcPBg2atZZYQ7TWGE/+YB7Cqq4N7vnlsPO0Fq9aJbVIHrx3ce3zm3NugP+jNe7/81IW5CR63dbHmpVr52x5PdVnN2gfsfBPvf5pQ5N5c04gBwb8IHjtLyVvI063GBIAh6lj+TIwwo1U3KjUSLYoFTN4lz6NspQrCc5NrWsuKAUtncojgytWclSqrM3PW+ANxvz9k7KWeHCrwg8JaZy9uo3jwwTCsBdL/6A+Pg8D7XG0lonJu3Uevw2LBwc79M46BZdxF99OlnB47ix5jEO0SP7jZhgnWdl6kUFbE3uUyxLkbExkV9nbxgLpolnGeywbmviLhiomyUqZOskYL411FlOLw0InBTRoTA3bnaAd3mCYeGB+TSJ826nO/k9RdnQNlqH5u2rC2/jJOmqzlBWbbA73w/AnCEGlpO4vypNbEeJDkSF80Ls7cY7VhhsaoosQr9K9KKhEYaR+KElnA1l5DY5qoVhaZMPc7glwBc+mElpRC4T07eWu2aOcAv0zhpOaNKIXDvHPo2ak7UDV1hKqJ1WeK4ne+90IGLpIQPZ07qcKSIcI+AyvFDFEUVEyVF2zKuCQUumZLaVz5dsCLM4qLsSVpV+GsmNwtfEprwGKunNRpwJmnc+2vXLpZkjg5EuM2yueOmswWOiXu97+CtDuXTevtaU7I78IFmpgwDuIowp4/L7ZXUoqIKoRpnqoEWk5otRc+kIuRNcsWKtiasLLELlVnRr09Sdoegth0T/UQyylKLwK3ynV0i4BpjRzhJwG2mm+Zhl9qPeznnbbRbI13ATJ/UpTrg3M733mnIwAlNXcJtGaynTJDHKczdpdsCU5eSIN6IJtKAZEp+NW1UpHHM24uKqqXJLflbEcGvqltChfMOXHX+aHfbxoD4MgczJEbiwsn+RwfPNeK7m6Yzam01PAO3GjZwawKB0/MeTkTTCgLi1iusZ1MQUSaoN1ISlPL0lJcdrpqAnckvE0vg1MB5my1vFgQlEW8KN5OT/wkSuLmSHJJ5m0LhQAIElS/nBUoybzPknMQJmwOnoiOrQgMuK9K3rJcnIpJKCpwZy+9awiYTfZ0aemkCF6Xu8WAAUTrGaIBFBQlyMuFtJ3VFdCtFrwpnihTuqx0a1tsyvLmJ+0hoCIwkeJu+DuZv3xWkcTt8M+VOuMBF133ZckHjGT9py9sAtEIO6ttmmUy74NrrHk8XEXki1eUPJZgy1GNejxaqCNLkhI8cDipcdXfOgxxvA9No1+cDcsKAcizJ2wToeZpYr3oeFwgXuO2cwGkYDefhXMYnil1dyS3ynZQ3g6wBufLdnOSHEvTf82XPx5wUdByYrMkq3Orv36yj4UgOytGRJG9TZ8i8VslJ415/sZnZleRtElW2Hf3vO48KFzJw+O/GyAXIDyceSVGWItVKHp/5RtcC3MiXIJdhglNxoLz0Jah4I4L3W8Er1vSlFbVihdv79lDdQN7lhh221WV5mLnGjqzCCQe4/blGHZuy724azXn+1/gpFU7DuUCy4iNYxYHdYvKiFeBcDnXh18wfhttlfo6rK8Hva+m98ZihHov4uZW8TFdQIwMHFe7TZzugPOh7AK5fa8G6ydyy3D0xPbz/cYto8dp5IuAqcWkbLN3BAt87Xlr8xcYdAfqdFDdhCzDr6wcK6/Zif7Gs+9vMgONbWBpanNATA/e7NfANcrhqy07gvPAwef82XHPyylKojGyCaKVxdpZYxxL3RMDhel6+5OvN8ZqUhUyqhCJKPOC5wARsuysJf4cFr8HFe4q7xKTBiFJN+Uy/YQiRc+9aWFC4Fa61CyvcVwuIOs9gku5UG41qx+D85755BCTupZ3Bcd9/YHQa15e8C5jGLlHinga4qOBv5vPhhGrgfvK1YhxauujFheiWLqFB8m2UJN02jAfp42v+7gQvEl2MTiS8lHyF+9SyTCacDlz6sndxPnld9K45CmUedPllE1vgurwOn3E9ucDZ9AJXaUGlEne/n8baBTtL/rKd6RMBJS4fcT89aFAgV5b4TDGY2kR8fmXY/O+eisOTcAnN561sw5aO+68n4aXkK9xdwwKidczWl6uz4cPr7KJhsrO4I77By87g2O8/6Hd6Z8Nb6wIdpoLO2xafveRw4TpNYAE9mYr6fPuiTv6Bj6Tg/nKJOymhz6SUfX9nW1C1XE95RAe/Z3rF961Ad8GCllMVDoaUn3ELrnMxnL9uz67YKmVr0FJMOS+ZcDJE1wWG55eM/6t/YHce0KrKJ7J2waDEZwY3E1AkNq4Hbg02BWTiwCLKm9Y1399ZVCF/qKxMmTZoW57qMvNQJr4fQkowLbBrlxCZ4V5v6HqdX5tMiWvy7Cb2lED3gNnG61zcOt//lkVc37DqOmNQNtl5ImsXMh4pCf9Nhyx6OF3lwhJqCuQkBC5agA9hAHlvCmHkKlXEoPnKP/sa2k600LmkAocmvj99QT3p/pWbtwkQVXahssuJKe2dr7vsgHLxAsMeI6rsH1p55vizl2mBNyGegAqbp3H/0Rce/XEBXYRHmmoBfaYAwrjJraJfEZdNE/VFNoO4FfiD5opQSFu77msm3Invu4YVUR72WfnV+SIPwysTeh4XY0orohwzBXTQWLzA7RkrqDym1CmfBrjSOpoS8B/ywFU+at5VQEdNgYLEQDRcrrAZCeJbQxzFHcBFclJmUi/fr0L+xSQAJ1K4u//aNXsWD9dnS8BdMIGr7bLrlK8sAe0yTSxmb+n9b3uMNHHeGWhVPeRwYQKHWsRqTAsi/AIxT9xVQEdNARmthXmN7zKQ0MmiOJDeRjWNrSBuRcvDtUYaULi3TIUz0fmndy1rp0+NxsMwySybmM0Hf9eCg/mjpXAtg1kCvVh6f/2MEVOm22NhYwDkcL+FCByKSJRsEA9EAVwh53g2o2g0Jy7TnthG+lMO4luDSZzuuNdiEm2tCCYJJ9tVCWcL2KvOn/O6cFaoxgKivxxRDm8vmf4v2w7yhemjHLNrlNVl4IbDS1YrbiT2U57SFsEGCxzEQYkEoqHg8U86ns0IantLWQ7R3EquFExgQCz2o683XwnkViqogJMFCscFzuQfD2ePejeZNUQGcN+vmMDV2EmcVaTkpHBVxgWGVwzgjq37zPBXLaw+BXDQkxEP5BLbG7RNjmsIOKnoq5IEael2MMAB5VIdHwrt64oF8numRRRqAE04rkp0mEfj4UEetftEhdPZwKVti/E+a/R0zO56MxXuCjmYx16Aex8icCjDigVTB43Rgta1XEBduGdlJeRCBfbpq44PBcaE1EQ0mO93k9jp0wgHMk6AMwFwO9ZZcKMTJnAMHlR2SGlaa2QzX1jAjWqErjc/pOzbRRl+X4C/CPZDiMBFwDG4fp211gsMkDmnx7ZBG06RAg65WxKR0GVbLZCAU1JaMH9CVJN12dgIZ3zfn55jcs+Hs7fj1fqkLhmvaDKw51Az71jAtdjAGYyqzBmr01drjr0D92IlRODQOGUxmGugh84BXEkJxkg5AU5uI7G3ZgeqPpLa0t52BzH+hBtE4BYVbuUf6IzvHQhc5htTty6pbYGBeTgCCjfmjJKbV2ektkDfsIH7lwfgbp4IuHIw1wDzP3qKBpxUi1h7BOBgb90BHBjFUB4buGWFe8F3Lw8+YIVjA2csJ3HXIuA+MtZ1cYFb7qwzG98Dw/KajI/kc7i3TwScHkwVDbk19VgIwD2GwsG+AA24oBQumvCocDc3ywMqq7bC7XlRuMH1ksB1ODNtFnA//l5WuAwPuEnQekawdk0iYjFw/IHv0xCBQ6GREj5wSsxZ3v51FE77eYDT4MQdVLibt6vcM7458wIChRuYF24gzi95c9k2cBmJkHIiXQtlk8kF+t6A4680+S1U4NSnBM6pcOW/fiGFo+ZwsZ84h7t5/5ZRpnxwmnDKlCKF63d67mEBQwQcM4fL8IAzFzoDFxyg7ZDyx5H0Gd+rK792SIlWMCs04FRJ4HSw8+8RgEuQiiaBVSk3glQ4+5DvNOdMb1SlnBF3dW6J3HnvMs3dPAKrlGP+fjyz07PzuPNeg7OFgVA04dZM9m5+8aIJqFJSFW5dyh/yCH04OGmdoH32oPpwec853BvGZkpryYLJqprsPDS+M/yFXX2jenk13bHQu250wKof273sAm5fvIBveoHexeb9BXh3YeyK2gKn3JrJh6cCTi0EBJzuV+H+kluUjIDbCAQ4jTp09BiN75xnhWPNfJsPOVx6DzlNMm1wVptpGh3DMNIm/wRFB3CvnNauv39Ap4m17TVtTK8AjmicN76/Sqdwb8MEDjpNwm98OxWuogcFHPJSBmXtUmjAbYXO/rM11XMOxxhBtcuUzKHvnU/IS+nItPpmGi+zm3kpZ1HlS9YKofEBPvjKtM4S50BvW7u4XsrnxJrJY3op18MvhBLbAnLAoWm1ZCCJqVYgLvVH5uXNYEL24nfVo5fy5obRiJslcdN/0swJHWs8Z1e0M1KwI5YzLWDNw40Pve28tPeC1QXTAjvPV0nDOY86LZALJKuv5NEitzCAg/Nw2SA+FF4y7gAOmZyVYEJ2eCtO4JZzOMa8wOq8asKa0Lk78rr1fwFH+4QBF3AvX1nzcLu+gBvY4zl1LnBc6/JKmMDhebhARlnQUlaqtUsSOOQsjgUygJonAldKhj0Lq8E9fAWscKd7PK+JyU7i7r7CiW/yaz6Svc9esVA3fCmc3RXgTXzzjV3Pb0IFDk2r6QHs28FBazjAofkE37tXhVmia8oCVzSCyCfh0cq6S8//+ccicO/BiVXs1nfV2mnS9iVw850m++wlQqNjXzzb22p5O034wLl9Jjcrf/w7UOAqaKfJRjSI6Et9bODwPHYxCNWGBwZsOP7PXMg7mmCW+D3n3gv25yJwK8C+PEgz7ZT/sWI+PxI039qVee0G7p1VNTns++D5WLi16wO3K/Dm/9yda08aWxfHB6vMDEXKzSIKqCdqoYZAzrHE+EIiPDW+MFGIUk3x0mOf6As/A+hpOJ2E4POVn7kxF9h77b1nmEHdaXqa9nQYpvs3/3Xba408op+ViQIHZnAnEdIDM1a0x3PYgINquxBzCh2YceBwHhtwYAOxnPsXmgB2qh8pGNifGSUOUVCo1pAoRqU0i9qpw2nD1Ws3CmT0pWyNNoJNTcCmlBqkiVUbu9gg5cgzKl9xk13AgbhuZgJuPTiP0AocdACVcWBpHvrMmOtdLoS7PC1wy/Rd0R3dCjgNKzT6AefkqInVpkTFKb87HX5q65JXRWbhrJ2X+y6A3hpefnDM7MLtjgB3fj9h4KDOy+7b8BN6pnoEHKSqvPvgIDwwwQ4c2MXOvXkrJMAm0COdKYSb87L22i6XcbUm5gkdCZkY+DI0BgttFwI3NPla+NkCLmxWI0aJnS2AF7hPNuDK5/vChIED++TFXTeW2oxTAidMELgg6MRl3eoKPGPRDpwItiJ37SSDIxn5zCjQczcXP9fXz6/29/fvdnBRkz9+DzNxqMTAxslgGDaRXGfJEGO+iz3XcVAzBFplTnsbPSnPbm/vft7t30yaN1kNoAZUrmt90/wUFE6AIwluJS4dYAAOHFeVdDucCB7uhzBZK9v399sV+W9WrtR9tQtk4iRknPJQl7hBs+3axUKNQDXmwzm2WY2IDN6i3CX0pFy/uK9UKtsVbvIrCHvdLgNpIiwGHimcACU7XI75VVSFpweOMJDRZZ8mePwxZvaR/s6u3CnG09+QE4e2KY1ZU06rQeq6RPZ6tTXEyGEj4OFQQo06yt7D6TPmbM4s3EBo/cec+aAmvcD586GEO/srx3enoHBgskM5iebqHZIgCJwNOHjkMO+uGawIa20cdhG/HShR71lc+2VlxAAq9/1peCau13dk9FlnfK+gZnwbEufIS/xnyzja2iscsZ6F0yqXy7cVzrsFz+EOuSmFEsLx7jQUToYC1BU3LViFVYIHNwIcPDKRj7h5oYFCTrz2/RkmE2fYlOhDcV+OU+RDNFDEpA+N+LbYlAMnRqVlxHcf58FtzMJzPNZ/cF4u0CxxlYsTFwKwwllPC0wuD0eIvbpzTZeiXSbgRNiLdTPyEsyh2gtVUatyO4POxOk2pYQZMfA8PIXqJDUgmTnvkYMCiEClA6Pyn7Y54bt5xNzO5P0HD3LdYzEAsGzCRSdH2JXy7rQAUVdcjC4PLgTYgCNYEHxs1emtiGk4HRgjPbT9HXT7ZVXiJHwroaNjo3P/5UfmCKVpULbQvJlDGXvVtvOUei+FHSuAD5lseJLrHvW8kzAUOadGJezSs3TtYgaO4Gjx8ZLjdwhPBC4yIok8bPg5LREHSwooZh8JN4pN+eEz0PAcHTZ5PjSstuq15Iy3PjpEOTJ2eMDsxjUMWAcnR8wdKbXZpxMuVx7fnFn4H85pMi5MjC54p3DgGQUVCme+Uz5G5o2PCXa7OkR4Bo5uRcgTgqXk2UdqnHIHa1NK2HPfz9/7zoiTLAYfMmKin4oziGNMf0tfDd561S/s/bq0MR7n3lqUhBnxqtXjROPEHNn48kzh4I77jotogtkuxbIDxxGiLHzAkRu3FIE57iaJX1C4KGOKTWSbUtLPfSOPoX46GZ7X7j1cMyBRN6r4lenei1jiaiY3zbrkIB6DPwgHCZzWc3nnzmPeOFIsMZR14GeIaTJvHiqcQEhIdEPRJdbXiFDK8mSBG1U4eAy3QzdZKBHNdYrcx491TGMTQ+Kkj7PwnDil4oSWuC2jwgQboTS6d/VMjatTXl/as/D2cIqdNYyPUWplJuVvXgNHMnqcePbBZRot8E7hODFD/OxNNuLEUjTUdaBwHCl2JGtcmNWejJJ4ozn3t60UM++8f8SUd2nVJuhZqIcmcQ8NOkdr79LGGwTc4qIpcb0qXWRGqhdM3von+FHD+G4mn5Ww7cy64DVwhECaShxj5ESEa47M+LxnwHEJ0pYMREsC0yaP0PE2qnBckAhqMsH2BVezRKWlslNvd9DdKS1xyo/oWaifvls0rkBhVkr1hpEwHz93Oo6chbh+o002K7cuzRvq9Y7xvAEWpRqjnLnynDcunCCSkcmxvITDCxmeZm96cwBVrzbJEMmIMDin4nKW6ishFI5bJr59kvN5kcF6IObeR4+eYtbNAcamnDXCJhiJez5Ss3GapvSrjT2ie9U09YfMW6dTbFmIaxLN1nbhwcJbE+ANf/RUO3tavvEeOIrqCT4zTx++LkWTdFvTS+DENAUa9EVeiTglbuMKx4nkZHkgS13SE16IE11JytT+nGpTbswC1SY4iXs6OrVs8X71EkJu69oqPzS8dRaLFo2TRRTy5KR2o9rrU/EGCZxqUf46q3gPHBdMhGi2RJBSC2Kh7vSB40pkHeCTdI6cUIoGaPUNoXBga1rjjUbnyIn5KEU0KktZdH61g4lTPlokDr1zn4cVJ/pOrzbaW5KEKC3Z2vtateGWAv238Q5e2t+qXu9tSajSla36cd/6fz5AvAG9FbQ6ypmLOR+A48gSp0YrSyJpewriZiREvTW9BE4QKYpCeD65sEQy5sSlRLJLz9u4wtFInHwr8VxQIN9KiOJWArQzS+6VxMDMu0ewoBIjcU/P3226NXhoXNbbNihk2OqXjerARk6NBrcxjVPOA329ru9t2QOT7evL44Ht+v1jiDd8ezy9P97BvR+8UZTA6/+Qq2FoTwjB/EKGYW96qnBgR0xrDjy3KYLByXSW4SshFY4r0Rikst4ug7mKYD5NZdgyVGefz2AaLTxq074lvMQpowaaViYGg/5Ds3F5XW+323t77Xb9+rJRqNrUh4E3W8mJdn3Zci18vbzWLy9f/2uj+WCnsvdwAvEGCpwao7yt+AIct0QXEuDj8p7AbU8xvJyIh1i2prfACbkM3V1k03mMtshvkHSM6SshFU6gykoqwROFfgHzdFcXKG+F4YjtjxlMeZdV4t5j9+/h8YN9v6tUNAuF40Kh0Kz27Noj/0gV6XkzJ6Larm9evm/XNtWwPQV5Azw4LQl3sC/4AxyXC1Dup0w0kSuJCGNneWE+zrY1PQaOC1MmzmTkEunVcSssuJpOZANd1oVQOG4zQvtIIsjHK9M2T0s+SxWN2qsSWd5lenG/sRL39PxFC53YZSyVSik/jdHQ67WYeFPMytrYNQYphTP1M8ZW9fDoCQTukXBQ4PzGJ94oq5a0PZHJRmXbMijqKxiUd+Z8Nh7guy8LOHKC0WLOxSOJ5c1g0PhOS8uJSCwZYsYNpXCK2tLeCh/IxCLK4zVuJbyZm48wPF2Wjtlzt7heQkOJkwAvTglWHlZ7FKvvBDc1PVBDgJVSpW58weYkLHDa0JzbOb+Ao8hb2XdFPBaJzisrGsnGMk52pvfACTmW21K/U0T/TrF4JtB1tlDAccEE/eX4UNJ4vMrTjStPl5o3tjFjN2r/rnd4Lw6WuKenT0djZiV6pVprHSermOrRXb/5/YmwdkkCt/7NN944MZfs+r28Bo4TI7zvXwqpcIRuTYiY5egvaFeIrSxba22COhWnndJRIycSRNzT0WlVse/6VjEblbdUqlbsOFyLxRQFcymSvEFVlLrA7dz5J3Bs7+DXAhyxpZ0XK4uxb325FT7Ldr5O+HGA6bRg6SYkQUbl09OXQqtWq6VwWMh/kKqtdVwsInLyB/x1+EQUODxwux+0kAnn52LJoL0S4ARhOe47cBG3cSk3K856lmr7J2bctz37/R4ErtNZWSnK0LVaNplTfm61akUHvtsYckhnbli5In/An+4Fzp8qE2t5bvbNKRwXTPtuKUexpzK8/+xMmvWoz9xVGXdIR+/fhZ9AbAFOOzmqYNeSqVMyAL1+Sv51cWWlM5G1uFhUVHRcPWv/qjj/RQIOP4NxePJ054Lzd4l+y4EPwNEcPPcJOC4877VHGXDQ1vD+DJv8fjQClVAyzgROxqKzuLaysqivtZW1zgSXcsnivzLFKnaydP5bVH5L+0OiwuGbUernBPwWOI7y1OgrA44LR/kXApywGfX2k/msk3PsmsShjsXNGke/0TO/h1GTk45/a3FtTaVY/4+x/nSeEtDLln/5LXCKy7MQeHPA+U5cFEgMeuom8xFHHda2z/Be3B+GxP3+/DKAw63/EIDDF1HqZcu/DrY5/5eYSL454LilbOiFAOcpcU7HlMypZwYwXtxHw42TcJHKjdcAHCRwugd3JUwBOCGYyLw54Cga9vkFnJCPeKdveYc7ZvsAW25iqTfBRypfAXAQb7rAnU1D4NQgQ/LNASeU/LQqo3C5WdabWwlF847f0Be/cF6cOS4OMCr/Pn0JwB05rDF5fD+jCdwcNyXi0pm3BpxCXOiFAMd5o3Gh6KZzi0iXuEdsvQl8bGDjxQMHpOD0HNzM+g03rRX0LVZpbX+/lPEQOE4I+0dcdApyG4qG3UxduZhBD4szm1RKQDLuRQD33yNnvOkCV74Qpgac7GjE/bHArG3yoOk50aUJvEYWki8DONVqn/DzdTMTRJU4dfr3B7SjY/TM+/34ShUOSHk/vtNmnp5vc9NcSxFfdqe1TV44jgduPjyJL5WOh14GcJyYnmhdZSiec/l6nttXKyrR2W+zLSwmbPJ8+r/pA3e84aSGchgxKV/McdMlbsEPkbP6cGIMy5v7ycfaJ6xGAi8DOPlWJhg6CURW3c4K1ysq0akB0437P3tn+ps2tgVw3ABewm6oYgweMy2UgPqIQhOh6ilSlUX9MNJMpVZJ1KyTPlpaRW0aStIvJK+MXnFUJf/ys7EhbL6LsQk4Ph/aChnke+qfz3bvOZ/S0wgc0KHUSgJ3bOAUD0wYw1bm7oETdEgfuBhtjqtcYBNjeI0gzREu+E1KTZERNmOCalptz0uPckDiJhi4G13g0qCSt9qLsrFw6LpzoTOs5Y9mNNPtZukCRwgmBbSUTxjDblEW8VbMcSsTvCn+9vLRgn5pQDsa9zCnA9zb4gRYuGsDW0zU8R2NxjuPawLEyycttgeRbsuVvdADLpw18TXiZyYCOKUdmH90Dzfqz5j0Mjp43CoN6D2ev3/69PvlzH+nDzhQBe7S3XIoG8FnrokQ2stFRnsmmEQyxob1foPsGYrrC+jwRrK0mYvKhglypCWxGR/wWAWLfCuF0W6FJJJZ81TTGl6ls6VSfTov3bNTB1z6ElqCa5TusiTQX6Vlw8YtAhP2Z12AAzK93W5ojhkOXII3d02+WJIYIWJSRoAAm3CxGE4ElzSeDo4GOJ95WqE8rbxJaRZkEWZ0gFu8e+D+usZOmLjVElxj65lrcoQq6FsoWLK6PaGC1plk46d7q3/D85RMwGfykqhCzOCaogG+dc+ZpDnAuai4QeRk68b5zH0xq/2Egjls4q5frt190uT1Neah004JbuOFxzVJQotGLAIZjt1G8/Gh58CSfeOivLGhu7uiPGXFmvCTsGTCL2g22TTgFBeXC+GrNxrismarhdprQJxK2SjMTChw9dfYCcq2Q3m07JosobwZIYm1N4IkIrHuZsbUsJmEEb4//oiHyEHeLkyN4LqyJxzemoiIn++YlHjANOBaPXRDCQaL/IAQt0ArajHuQfoSk7jJsHC4CUptT1fjzYFr8oSOizH0LHbCz2d6S9X0YNfx8ABvytisIfsovRauCbm6z4T4QtcbxOc3ETilRpDlkDPCsu+Q9VnyEnK1Ong1gsDE3hCvcgKAS928xeWt7VBuuyZTaDrrDycIhgSbtmhEji0G2+PTXM+zTUaHHt6Sw7jexAlJhHwWmm7aywciUQK+pJiyJKrbFgO+wRm7l0JLvWDsiUTYn/XSVinEo2YqH7nxiLte+hORi6Jl2ZWbl3g7urRZAmNuRYn5TLi8BYGVn1BmSHdSkiSZRDgU05v/QomdEWukjJugY7fi/gRD3uIW5rxWv0d8IhcKRwhycE3yR62240PGlwBjOM7ovSjqTUaI4epliEgyxBWs1cezd8rh79ITN5ZXmUYGbnH9FxZyqUVkC9cPXBroGXdK3m8+uCZblHkyrNqAO5KItiQRiYSTgZCfFYCb+r2xUDIiSzjgB2BE8/5W53QmKj/rbGE8i1IGkahLivQvafgoK2uAa2lJjLF+5VYU5TIXjPyndi8xJYS0umCklr+DwNrAAHHXfyMDt7+yi0Pcq92UUQuXBpvp2eDE7OlCgc6XyYo8L2jCi2IhDg8rKF9B/hIvZryQ97woCBwnCGKcHt+aaF+8cLsm+S6zoCVZB1xrv0G8IIrKnXCKGpSbQVGvmeXvIDj8cT/v3eP1ByJwqeJu8+EqKp31tfX8DmJJfe7mb4yeCh2HsvHeNa1CmXYR1oXWrYEC3QNoLA/JmXkv49aEWv5uPMrh2Lg/kGO4V81mc2UXjaL51XxzB9Ue9gE3C7ZvWkXgwcQ7lI6oIgK2+pP8VC+tNTEOUo0bIA7ZaP3KN5Wp3PNFhHBvpdn8uVo0BByMN60iMM5hOY6MBBxpW+C0MK4EjoHcPcQhW7j6vEyRgtw6xHIV51dbF+6njAAHid/aAdzGtsd5lKdCaAGUu89O9+KWt9VqHCTL11MdQO2Tl1pTOWo2V0HpyuL8el4DE7Uf8801sn1rV+AWjp45j7I14vWaW7vygsZyMJkp19by0QJCqrKbOOTGlHPFXQ24Zn5Xz68srq3vtC+aR67DXSPbt3YFbssJ4CyxRnGeY1k2JphYwvKBdnYx3mlXmVqN0z8bN0gceifYDnDN5s5w5OZ3V/OdS+rYwKWfw3hTEyaNO+yLZ2fcRDag9g6KJlnRrF8FjnlM0FOvtQM1cQLZcSI/u/jAvcrfEpdf2e9Drrg4v7/SdcU6cu+GxWuk/SXKpBw1YVLadFEOH6b7kmzXMHoiEjPJ+GRBJ2qS0w8ctdkK40pQ4mZmtaHDqMnE1C8ta9Jmbmd/fW2xqMr8+v5OF23N5s9F1EmON2vXCOcDurYs380kAZsLxSd79kkyRMiUrSuUANp9GbPD/6Ra/4YVBy7bZ8CRgavP7zT75efDlW/fvu18Uhrx9Qn6SXIVOFi65HaHycSdybGDeRMGDwOEzGgBQgOblYu2eHW2Juo0HjzJwYibaXWCRSZj8fVScxC5Hz9+NIfIw0Us4ODmrc1b6Z2ToDQ/fBvaoStgQg4xg9qJbJpTle8XVOKgNkNxK9GBO6kenz5swkR1LJe+nmC0NJmFRm+dgkBpy0mYmO9PisMzG6Of96GA/QOTcVtoj1JPozYewL002a18jbyr/6R6Vf7a7Inj9OTLsXSOnKT8PuOG85YLakcEDpwAznyHMqBzvI0dVdm+MGifid9rkxfWwZZKXBoax7ln0LsInVSlq/Jpry3LD9g25R+nH6V/0C3c90u4tHcsP950dpiYL7zeUdmRm4ABhwsxHO2yC3FqcaCUhj/K6MA9lYGTyqd5fUdS/St/WpauyP+h/uxvb9F5Wzh07JsFonsmmxlx+FUG2AyBEO2jws02cVBnbR89u1GTrmTivlZ0aNOk8vVKlgRqVaCeWkWN3xqPXzhwWJEyiVrk9XlZYBuEZMFGSlTLcQjELSE3NUmdKcBJ0uclUBhX+SwpwFWRgftXBcqbtsFk0pri2UXiACwignG3jxLDwBYoMa+dtPhCtXFBWOakgt5F6KSsoCRdHd+6lf3Y5U+PW7xJNWTg1iqo8du2U4CzJoQDYZE03tMxE4KM1rCVFtW5cfBcZQ55k3E9VW3BdHVV/vwlP8yvzC99/qheIp2h/uYcDLi2P7mx5/BmjQA3g1wYbubsjYGbtgYy9lLj8vbjBkI9zo0OXP1MA05G7ngwlKucHn9sX0CgJykhwOXavDn2zSoRSdRZx1gOpZCAjHSlbaZHz/YGSnUAw8KpPmUrkJOk8vHpUqWSV6RSWfry+WNZ+VS7oIpR964Ad8No9bcFJ36zTAoMuNmksRmPWUiz5oRgP00eqjYO3OYEZ8p37aqLOKVI8FGVsvRP69O2AUQve9fr33OgwrzG28ahw4V1WUoC0ozdSHajAOk+TQZo2ymSojTiSqDzcbtFfBPXEYaRIWPIvk8xDFzq5nUOztsbx75Z+ZwkIWxEY7hxHJVJkmADFxVsqUuNuAcA4l7iTIirSX1oKZWCK6kfuLM5dIj1gXM/eaDxdujwZqXABiaTCUziqCx0yk3YZ0tVeg63NK9SN1lZwQBu7qR6hSAYEVzqt7c53fKbytvClrOfy1rhocMxCBZnywktwgdcxWy6Z8izqRGnO+cjh2Ph5s4IOG9lDANXv/mWA5cDJmvooi3FB5/2Q2BsC6F4+ChYwmdbbR6obU4ajbTONGKsocNP+53KAZGk6lOcUR7f3MDwrfTeKQdYnjUR4POfmDCPmDqhOYRhcpyNN8Vq5+N0k5V4A6tOqjDiyic4v3ezCgzfFvYcd9J6AQ5N1OK4C8KfQUgs0pkAwvS2cNzW+jzaAAVyeMClziHElc/rowLnbruTJSc9OZY0Jc0hTfINcwWIYaILXARlRCpH21qhHm3TSSM4rAY+X8eT87JpAdxw4NzptjvppEvGJEhmSYnkgPN76biANOKcDMVtrk/P4ZYayJWGdDr5ExO4OX3iJKZ89rQ+InAzHXfy6MBBYUw2jkcxTEpJLhQTaV3rFooi/UqEt/2xRs+HTiD3fFTgFOIkXfuGyVu9uDqQLemEb066ZGzi9SOOqieJcEgYHJRM+0R/OIo2e5vxe+/BK2xZa5/XCPYbub+wgZsbnjmRpPL5HC5v/64Mz5Y03hw6vI0zbxK+QBUyGgko8061sXAU5eNjoXCCQf1+MnMfFEq5Dh+3jdxMdyTnxgaudXBg0MhJ5ZqBH/pPZcgwKtm8vXPGB4xXROICUxJJvyxqe3QS42v8fVHph/datrKnZ6V73QAmspGr9SFXrp4b+aEuC+eeedTmzTlsOv43sh+TN/LCmLD3py/N8t6bUrtAkDPuUrYjuVq1zZxUrtawozdVOsC5Z54EO+bNORxwB05l0ihCWJgmvfdIp57N9xpxwUftkVa5dYPA1Z+enJ/VatVqrXZ2fmIMt64Y7kmw407uOe7kXZg4MTIG4CLi/dLqsz2tJNf4P3tn99u2dcZheSsd2rVdO45h+aOhiabZDDBMaWVhNJId49ghSIJMMw5ayiVLhyVoBghCb3LRXOimSG9YoP/yRIqSfT6cWJFsyjq/JykayHYiHPrxe97zvuecL/7017Ei3KCduUc91+8T6edwn339VfmT4JcHzx5iOlkJC1u7F+/bzQXBRlX64dUgkvyhf8XOWMJ1VVUd68vzCHcqecsvN0WxuyLm1+cu2LfFjXnxhvX+w2ffDL69v/r8j5+NJ9y42P/rRbdfhro9Q/ZWIUvLF2vcDRF9y2ty/701nMB98Xmlwt15/ZcT3R7cwlVUFce41cUL9G1ufV7MYZVr//nx1vDb/EmlEe67B8M38vhH7Oyumo+cJTneAuXytrgDe//hq8G8stIIp/zjFyyWTJVxKxdVHLi2uiTywEr3HpYNzZUKd/TTsNT9BuFtGmY/d1cvaj55W/CRle4/zFO5B5UK9/efylL3D9BtSr4vbl9IHjcn8nxyMLRysWBZfYT75hX2vU3TWuX6jYlPJ3e35jGwxYLl98++q1cb4R4/+x4PYrrWKjcm3HNybW1rAcNaLljeM6uMcAf/evxvnMo1bSzsrE1UuJU9jOkJlQpXf/IOa5NTaNze6uRK4DeW72JET8W4tFLhGg5uEZ7G74rtjUklcms3l/CITw9tWGnhu+sbeAZTmcjtTGS7ztzqHtI3AsOuVrjQxTOYzp/ECxu74xYI5sTbHfBRtFalvql6gmcwrcrtLV8fR7nFNdGL3RzctF1thLvjYYY/xfPK1d1PnVguXl/GbJL9IaZ12lXW4brKYaeJxzC9bN/8xC07u+s7Sxg+NsAF7axK4dTDzcxHiJvmH8lLOys3Ro1yi7vLe/N4rJwVE6+VZUqFVQHlMNvsxHgQ08zC0t76SBPLa2tbd1EK4CFpnazdrnLV5PAwyzITlYFpD3PzG2u755paLt64vrKzANv4vjm5b1mVqyZZ9j5734pcPIzpFq5Wm99bX5v7cJy7trj75fLONmz7kG+9X1mFwv2a5XQ8F09p+q27u7G6NveBmtvK8s3tQk7Azd+sTjuPb+0Kk7j6r0WIyxDjroZy23tb6yvXFxev5ZRhLWdx8cvlrZ3b2ILzgfAWR0V8y38r1U4p8/9apoMtcVcjm7v9572dra2N9fXlPuvrG1s7e1gl+Uh48zp92/JfdyqdUuYRrve7E6Aed0Wck+WFhfn5+aWC3h8WsEjy4eBmxF5/Nln+alTYZ7KZFRGu93uzEzmuhEcHZuqnk+E2NbOV5Wsl7XJGWeWqyWFrEOHyqeVmK3KaroHJJZiN0OYmmhfkpYCCaYhwSquMcAPn2p3At5wYq5bgqke2uCdb2MpDWl+zbJDEVVn5rm9mgwDX/99mvoLSSiNPayLSgau6RJJ4UZB22ifrJEPtitcqFK7vWblWmQ3/nGWdNPAdtKCAK0hidlqlYGSAy7K/FS/WKxQuO5XEvR/q975YRQmjJqaW4ArmbrEW5M6VppXWtXu69b2rNId7n5Gzyly1zd6s0u9lcgZ8A1cyhZNrhhOZaafTOjWrzErfqhOunkZpp5WdnlW2Op3UjBw37xGCbuBKp3LFKmVPu1Z/mbITmkEUhBVGOMWTXMfrpZet1mF7s5Wr5mmJi9QNzE6wcxNHsyzPsywtaRq9yBdUl8PZTvGDIM7fUe/99CaReEBgFmeYsiQPp2zNQK9KuHQoWPFmZMwhwezbJ1lVCaeaKLUB8Ug4R1Me7F9C/4kSIaQB8YjZ087V4+cHlyAczg8CAuJGjAqNSxFOtzD4QDwMnyPct5chnIbBBxDu0oTrVwUAEAvJY4V7cSnC4URKICJWVcLhVAUA4YqqwMSFU9ijilQIB8QUTmWEezlp4XTOxY8hmiaBgMgaHX3Uo0kLp9oRhAOgQKN7u+qvH006woUe5zV0dgEhIxwt3O+TFy5NOMJh7AEiXM7r55MWzowbEA6AHMc+l3BH4wgXuRAOgDOEe8IKpzaejLOBwDcUCAcATzi1/tu3tHDqwevj8wqn2OyGH8tg6wImhh6ISEK7wBGuqx8fn/eandBiCg1dzTDZaSaGHggpXHoO4ZTjc0c4s8nOHx0pgHAAcIXrPmWFa4winMyseyacFukAQw9EhNny3Tjm5HAvRhCuRgunxjLTsakiwgEhadLp1QErXHc04eisUI9lh11IwdADCNdL1w5esMIdvRxFOJPZGCA7dIu0CuEAhCt35zDC7Y8kHN2qHDZrCZPXYcM3EBHZpRYQlaOXbA7326NRhKNXSEyXFa6BDd9ASGjh8u1wTIR7OpJwFitcTFfDG9idAyBcuR2OFu7gxUjCOfQZy26tSS+kNDDyQFDhqPWMo0eMcEejCZc06FZKVjgdIw+ExIg+Ktzv+y9HEo7eGxAZNTdF7zIAPOH22Qi3/2g04RRWOBO9ywAUwikfE64xonCGTjWVGL1/hcrr0NkFxETyaeGeM8I9HVE4m8nhmAOefYw8gHB57Nl//vwtKZwyqnBUwmZJ7AHPHkYeCIlMC/f67Tvq0riD4/GF0yAcALlwHiWceY8uUzdGFS6g2ialmqyhlRKAHFq4gKmaHYwnXB7hmGI4LqsCEK5I2AKpZowpXMRGOLqZEsIBQdFs6u7tWk0aTzjJrzMRjkoLEeEAhCvv3h5fOI+JcPTGcggHRIU6Jy+/Cnhc4agbeXLhqG13KrbDAUGhzsnTnfGF01QmwlGbEhQIBwQlDpmrgKV0rLIATzhqIUVJMPBATKhGftsdWzjqBBNFy4Uje7sUbPgGEK4QTmKEU34eUbiEFY5aSFFw4TAQFMlkNqrJZMKl++9GEq6WKBzhTr+mKi4GHggKKVxaCEeEKN3659uRhIs5wlnEayGEA6JC2pVvVJPJTam69mZE4XRWOPLiRxPCAVEh7co3qsk+8ZKt3eMKp9gKXziyF7MQjrraOMChXUBQqHBWtPETwqm2I73jCad75rmFoxpaIggHEOGGXcVkq0iY1N78zBHOblpnCJeywjkQDgA2hyvW66kVjiazp6A8l4S9r7gQjmwrKYULIRwAdFlALYQjLzFNXa5wDYe96+ps4ch76CAcEBWyl1J389ccUjiJjnmFmrrEnpPeF45sK+kLR7ippi4GHogZ4Dxi+dA2OMIxMW9wtCRzqGUpnMcKR24X0NHaBcQkJmeUYS6HTFSuVZNRcHAOEHPGXl848sigvnDUuQs4Jg8IiUudAxvIhYUKfTswG+GKLW2WzhOuxhFOJrYL1PXiRQBEQpbiVOWdNUIIp1jcCFf0HychVzjis/vCUYU4VQkSQ8YjAOLYZjQTj6lluxzhNK5wRTukYfKF01nhmOsF9MhpwjkgiG2x5ps6c/O2b7DC6flmUfbO4P6n0pdd9YUjjgwqhZPZfE8PfacpwTkw20huYvkppw+yaycyR7hcoZgRTis+1dN5whE1gFI4jrP5B01PS1CUAzOsW+Kboc7t9B8EOEI4VTd4wun9QxISmyccUQMYCCf5vH+yq9hpYLkIc2AWMRLPDJUzdtYowWAfNpGx2TWecGG/ksZcbVoIRxTEB8L1srj6Gf+yHgZWE86BmUrbJKMZ2Ypy5k42xRyee0D0lYQ84dTyk+mLOwrhZKIgPhSu1kzP+tdVVdFTx0A+B2YltDUdL/3QxlEl9Nyhm8RSiMmNcINuyIAX4cgDFfxhjuZGtnrWG6h31dB3XDwqMAuJWxyZYWjbus4LcYpup9GpZitynhjxhFO80iKPJxy53TSMT6KsE6S9N8F9F11VUfTAQToHZmA+aTTjxNE0y/I83/ej4ITI9z3NiU81fhi+ztTCGeGs8gsSnnBUQdw//Zcnw3fB4PXQkMuBmdFOlqUC9zSGRKZOEtUTEvOE07XyawyucGTn5PCTB29DOoPiA3hOQKhszyPzrNTgCRcOj04OecJRTZa2h1IbAJxcz0hM6oLGfnSihFNPVjQjrnDUAepKaDUNxC4ATiZ6kuEmfsi0arnFRx0qwp2kZeRFAgPhJHKnXL03r0wttE4C0PfDjRPNS5Uu7ZtdFtGo7TmKN/xS8pjlgXD0PeH9zXae00SYA6JHNjfR/CDlHTLZ1Yer/+RH7ZPrppqkWemgBmBx/j7VNn0HYQ78v70zVnEcBsLwNYY8wnXG5YIQeLcQQjaoCAhLSI0693mNPPtJ2cSWZcubHFcc8f+xEMImchGGXxr9M3NUWePOe2F1wVoZpwrI+2ezqoBxvrXLhoHQRyi2dttWYvRAeicl51xC7sBhhE0KfYnQstmLikdyMXNwNUmr8mzy23VKSEpVsEjXtDPjGJ/NCLKX4Aja5gS7fNw5b48NqDs93YafsgaUtZ21adnAJOwap/xl22u65eRqvurPz/PHOTz7chkcZA68ebhxe1lA6c1t9SC8CRI0WyvX20MqkuWyOrdGJRHk7N1Plq5+Xj59kPhJwDtvJlsi1qhorBqsteFVhENWutc79WajvcJ0iMv8y7RPsyKtJ+J74Ui0b60e3SOLAt464qLHa4O7vSrwa+n18lk7klsfr/nfeT6y67NdYuLl+l49Az8JAMkhLa/rydq45q27GqOwSwTgbw98qyvscalgeZ4yRKTukX4E4OXNZ+Xt+kL8y2cfW3enrOkoJOq3AXghtyId2SoSr4c8kX/amK3zO8qckxA6AJ6RNtkr1hWneGdIVrjKY8pD6ADYpeWeKF2we9Wj37ipdqV+KQ3Vini0TQCgIG1OWGbKfq/NeMvnLWbnOaMHDBIAIKfiJDaJbcq9vRpbcGJVztLil5prY5gV6LAMwKRslSSso+uKuIVPspztP7XE1Lt9+Cg1ile45waINtkPjF73CRvDH7z9LdG78nhzoeiBOCgdODRe/6BNnRm14k9ELhd6NEEn98Ku6WBEAUfGsS4h0bQuBBrTw83M/GwRTUxxCjVoNsY6gUXUThiMPwVHDrg+hUyEN95xWb18kRYPhLHxbLLWbbUJ1MABMMfL/e/0LxcDAAAAAAAAAAAAAAAAAAAA4D/hD6SscoYRLEsdAAAAAElFTkSuQmCC;" parent="1" vertex="1">
                    <mxGeometry x="120" y="180" width="150.98" height="70" as="geometry"/>
                </mxCell>
                <mxCell id="13" value="" style="shape=flexArrow;endArrow=classic;html=1;strokeWidth=3;entryX=0.002;entryY=0.581;entryDx=0;entryDy=0;entryPerimeter=0;fillColor=#f5f5f5;strokeColor=#666666;" parent="1" target="3" edge="1">
                    <mxGeometry width="50" height="50" relative="1" as="geometry">
                        <mxPoint x="390" y="269.44" as="sourcePoint"/>
                        <mxPoint x="450" y="269.44" as="targetPoint"/>
                    </mxGeometry>
                </mxCell>
            </root>
        </mxGraphModel>
    </diagram>
</mxfile>